<?xml version="1.0" encoding="UTF-8"?><svg id="Layer_1" xmlns="http://www.w3.org/2000/svg" viewBox="0 0 720 720"><defs><style>.cls-1{fill:none;}.cls-2{fill:#3f3f3f;}.cls-3{font-size:69px;}.cls-4{fill:#fff;font-family:RussoOne-Regular, 'Russo One';}.cls-5{font-size:75.39px;letter-spacing:-.06em;}.cls-6{fill:#f7a900;}.cls-6,.cls-7,.cls-8,.cls-9{fill-rule:evenodd;}.cls-7{fill:#39dbb2;}.cls-8{fill:#08bdf2;}.cls-9{fill:#ff593f;}</style></defs><rect class="cls-1" x="-280" width="1280" height="720"/><g><path class="cls-9" d="M473.43,567.63h-18.12c-79.47,0-143.89-64.42-143.89-143.89h-11.34l43.34-43.34,43.34,43.34h-11.34c0,44.13,35.77,79.9,79.9,79.9h18.12v64Z"/><path class="cls-7" d="M152.57,246.76v20.95h0c0,79.47,64.42,143.89,143.89,143.89h0v8.52l43.34-43.34-43.34-43.34v8.52h0c-41.01,0-74.25-33.24-74.25-74.25v-20.95h-69.65Z"/><path class="cls-8" d="M311.29,342.12l2.7-2.7,66.8,66.8-2.7,2.7-66.8-66.8Zm5.4-5.4l5.4-5.4,66.8,66.8-5.4,5.4-66.8-66.8Zm8.1-8.1l68.46-68.46-9.8-9.8,74.08,12.31,12.31,74.08-9.8-9.8-68.46,68.46-66.8-66.8Z"/><path class="cls-6" d="M472.16,323.7l-10.65-65.44-65.47-10.13,58.88-30.31-10.65-65.44,47.04,46.71,58.88-30.32-29.81,59.18,47.04,46.71-65.47-10.13-29.81,59.18Z"/></g><g><rect class="cls-2" x="634.22" y="610.64" width="65.26" height="89.36" rx="9.37" ry="9.37"/><text class="cls-4" transform="translate(643.7 670.62)"><tspan class="cls-3" x="0" y="0">l</tspan><tspan class="cls-5" x="23.46" y="5">j</tspan></text></g></svg>