<?xml version="1.0" encoding="utf-8"?>
<!-- Generator: Adobe Illustrator 26.3.1, SVG Export Plug-In . SVG Version: 6.00 Build 0)  -->
<svg version="1.1" id="Layer_1" xmlns="http://www.w3.org/2000/svg" xmlns:xlink="http://www.w3.org/1999/xlink" x="0px" y="0px"
	 viewBox="0 0 720 720" style="enable-background:new 0 0 720 720;" xml:space="preserve">
<style type="text/css">
	.st0{fill:none;}
	.st1{fill-rule:evenodd;clip-rule:evenodd;fill:#8CC63F;}
	.st2{fill:none;stroke:#7F7F7F;stroke-linejoin:round;stroke-miterlimit:10;}
	.st3{fill:none;stroke:#595959;stroke-linejoin:round;stroke-miterlimit:10;}
	.st4{fill-rule:evenodd;clip-rule:evenodd;fill:#F7A900;}
	.st5{fill-rule:evenodd;clip-rule:evenodd;fill-opacity:0;}
	.st6{fill:none;stroke:#2D3847;stroke-linejoin:round;stroke-miterlimit:10;stroke-dasharray:8,3,1,3;}
	.st7{fill:none;stroke:#A5A5A5;stroke-linejoin:round;stroke-miterlimit:10;stroke-dasharray:4,3,1,3;}
	
		.st8{fill:none;stroke:#A5A5A5;stroke-width:0.8796;stroke-linejoin:round;stroke-miterlimit:10;stroke-dasharray:3.5185,2.6389,0.8796,2.6389;}
	.st9{fill-rule:evenodd;clip-rule:evenodd;fill:#FF593F;}
	.st10{fill:none;stroke:#3F3F3F;stroke-width:2;stroke-linejoin:round;stroke-miterlimit:10;}
	.st11{fill:#3F3F3F;}
	.st12{fill-rule:evenodd;clip-rule:evenodd;fill:#38761D;}
	.st13{fill:none;stroke:#2D3847;stroke-linejoin:round;stroke-miterlimit:10;}
	.st14{fill-rule:evenodd;clip-rule:evenodd;fill:#2D3847;stroke:#2D3847;stroke-miterlimit:10;}
	.st15{fill:#FFFFFF;}
	.st16{font-family:'RussoOne-Regular';}
	.st17{font-size:69px;}
	.st18{font-size:75.3891px;}
	.st19{letter-spacing:-4;}
</style>
<rect x="-20.4" y="6.5" class="st0" width="1280" height="720"/>
<path class="st1" d="M286,142.4L286,142.4c0-4.9,3.9-8.8,8.8-8.8l0,0c2.3,0,4.6,0.9,6.2,2.6c1.7,1.7,2.6,3.9,2.6,6.2l0,0
	c0,4.9-3.9,8.8-8.8,8.8l0,0C290,151.2,286,147.2,286,142.4z"/>
<path class="st2" d="M286,142.4L286,142.4c0-4.9,3.9-8.8,8.8-8.8l0,0c2.3,0,4.6,0.9,6.2,2.6c1.7,1.7,2.6,3.9,2.6,6.2l0,0
	c0,4.9-3.9,8.8-8.8,8.8l0,0C290,151.2,286,147.2,286,142.4z"/>
<path class="st1" d="M286,252L286,252c0-4.9,3.9-8.8,8.8-8.8l0,0c2.3,0,4.6,0.9,6.2,2.6c1.7,1.7,2.6,3.9,2.6,6.2l0,0
	c0,4.9-3.9,8.8-8.8,8.8l0,0C290,260.8,286,256.9,286,252z"/>
<path class="st2" d="M286,252L286,252c0-4.9,3.9-8.8,8.8-8.8l0,0c2.3,0,4.6,0.9,6.2,2.6c1.7,1.7,2.6,3.9,2.6,6.2l0,0
	c0,4.9-3.9,8.8-8.8,8.8l0,0C290,260.8,286,256.9,286,252z"/>
<path class="st1" d="M365.2,201.6L365.2,201.6c0-4.9,3.9-8.8,8.8-8.8l0,0c2.3,0,4.6,0.9,6.2,2.6c1.7,1.7,2.6,3.9,2.6,6.2l0,0
	c0,4.9-3.9,8.8-8.8,8.8l0,0C369.1,210.4,365.2,206.5,365.2,201.6z"/>
<path class="st2" d="M365.2,201.6L365.2,201.6c0-4.9,3.9-8.8,8.8-8.8l0,0c2.3,0,4.6,0.9,6.2,2.6c1.7,1.7,2.6,3.9,2.6,6.2l0,0
	c0,4.9-3.9,8.8-8.8,8.8l0,0C369.1,210.4,365.2,206.5,365.2,201.6z"/>
<path class="st1" d="M480.4,288.8L480.4,288.8c0-8.6,11.2-15.5,25-15.5l0,0c13.8,0,25,7,25,15.5l0,0c0,8.6-11.2,15.5-25,15.5l0,0
	C491.6,304.4,480.4,297.4,480.4,288.8z"/>
<path class="st3" d="M480.4,288.8L480.4,288.8c0-8.6,11.2-15.5,25-15.5l0,0c13.8,0,25,7,25,15.5l0,0c0,8.6-11.2,15.5-25,15.5l0,0
	C491.6,304.4,480.4,297.4,480.4,288.8z"/>
<path class="st1" d="M481.4,409.4L481.4,409.4c0-4.9,3.9-8.8,8.8-8.8l0,0c2.3,0,4.6,0.9,6.2,2.6s2.6,3.9,2.6,6.2l0,0
	c0,4.9-3.9,8.8-8.8,8.8l0,0C485.4,418.3,481.4,414.3,481.4,409.4z"/>
<path class="st2" d="M481.4,409.4L481.4,409.4c0-4.9,3.9-8.8,8.8-8.8l0,0c2.3,0,4.6,0.9,6.2,2.6s2.6,3.9,2.6,6.2l0,0
	c0,4.9-3.9,8.8-8.8,8.8l0,0C485.4,418.3,481.4,414.3,481.4,409.4z"/>
<path class="st1" d="M619,409.4L619,409.4c0-4.9,3.9-8.8,8.8-8.8l0,0c2.3,0,4.6,0.9,6.2,2.6s2.6,3.9,2.6,6.2l0,0
	c0,4.9-3.9,8.8-8.8,8.8l0,0C622.9,418.3,619,414.3,619,409.4z"/>
<path class="st2" d="M619,409.4L619,409.4c0-4.9,3.9-8.8,8.8-8.8l0,0c2.3,0,4.6,0.9,6.2,2.6s2.6,3.9,2.6,6.2l0,0
	c0,4.9-3.9,8.8-8.8,8.8l0,0C622.9,418.3,619,414.3,619,409.4z"/>
<path class="st4" d="M432.6,554.8L432.6,554.8c0-4.9,3.9-8.8,8.8-8.8l0,0c2.3,0,4.6,0.9,6.2,2.6s2.6,3.9,2.6,6.2l0,0
	c0,4.9-3.9,8.8-8.8,8.8l0,0C436.6,563.6,432.6,559.7,432.6,554.8z"/>
<path class="st2" d="M432.6,554.8L432.6,554.8c0-4.9,3.9-8.8,8.8-8.8l0,0c2.3,0,4.6,0.9,6.2,2.6s2.6,3.9,2.6,6.2l0,0
	c0,4.9-3.9,8.8-8.8,8.8l0,0C436.6,563.6,432.6,559.7,432.6,554.8z"/>
<path class="st4" d="M569.3,618.3L569.3,618.3c0-4.9,3.9-8.8,8.8-8.8l0,0c2.3,0,4.6,0.9,6.2,2.6s2.6,3.9,2.6,6.2l0,0
	c0,4.9-3.9,8.8-8.8,8.8l0,0C573.2,627.1,569.3,623.1,569.3,618.3z"/>
<path class="st2" d="M569.3,618.3L569.3,618.3c0-4.9,3.9-8.8,8.8-8.8l0,0c2.3,0,4.6,0.9,6.2,2.6s2.6,3.9,2.6,6.2l0,0
	c0,4.9-3.9,8.8-8.8,8.8l0,0C573.2,627.1,569.3,623.1,569.3,618.3z"/>
<path class="st4" d="M505.6,582.3L505.6,582.3c0-4.9,3.9-8.8,8.8-8.8l0,0c2.3,0,4.6,0.9,6.2,2.6s2.6,3.9,2.6,6.2l0,0
	c0,4.9-3.9,8.8-8.8,8.8l0,0C509.5,591.1,505.6,587.1,505.6,582.3z"/>
<path class="st2" d="M505.6,582.3L505.6,582.3c0-4.9,3.9-8.8,8.8-8.8l0,0c2.3,0,4.6,0.9,6.2,2.6s2.6,3.9,2.6,6.2l0,0
	c0,4.9-3.9,8.8-8.8,8.8l0,0C509.5,591.1,505.6,587.1,505.6,582.3z"/>
<path class="st5" d="M75.6,95.5c52.6,0,78.9,11.7,105.2,23.4c26.3,11.7,52.6,23.4,105.2,23.4"/>
<path class="st6" d="M75.6,95.5c52.6,0,78.9,11.7,105.2,23.4c26.3,11.7,52.6,23.4,105.2,23.4"/>
<path class="st5" d="M303.7,142.4c35.2,0,70.3,25.2,70.3,50.4"/>
<path class="st6" d="M303.7,142.4c35.2,0,70.3,25.2,70.3,50.4"/>
<path class="st5" d="M374,210.4c0,20.8-35.2,41.6-70.3,41.6"/>
<path class="st6" d="M374,210.4c0,20.8-35.2,41.6-70.3,41.6"/>
<path class="st5" d="M76.6,139.5c52.4,0,78.5,28.1,104.7,56.3S233.7,252,286,252"/>
<path class="st6" d="M76.6,139.5c52.4,0,78.5,28.1,104.7,56.3S233.7,252,286,252"/>
<path class="st5" d="M286,252c-52.1,0-78.2-22.6-104.2-45.3s-52.1-45.3-104.2-45.3"/>
<path class="st6" d="M286,252c-52.1,0-78.2-22.6-104.2-45.3s-52.1-45.3-104.2-45.3"/>
<path class="st5" d="M74.6,74.5c52.9,0,79.3,17,105.7,33.9s52.9,33.9,105.7,33.9"/>
<path class="st6" d="M74.6,74.5c52.9,0,79.3,17,105.7,33.9s52.9,33.9,105.7,33.9"/>
<path class="st5" d="M382.8,201.6c24.4,0,36.6,21.8,48.8,43.6s24.4,43.6,48.8,43.6"/>
<path class="st6" d="M382.8,201.6c24.4,0,36.6,21.8,48.8,43.6s24.4,43.6,48.8,43.6"/>
<path class="st5" d="M530.5,288.8c30.7,0,61.4,17.6,61.4,35.2"/>
<path class="st6" d="M530.5,288.8c30.7,0,61.4,17.6,61.4,35.2"/>
<path class="st5" d="M490.2,400.6c0-29.4,14.4-58.8,28.8-58.8"/>
<path class="st6" d="M490.2,400.6c0-29.4,14.4-58.8,28.8-58.8"/>
<path class="st5" d="M664.7,341.8c12.5,0,25.8,10.9,25,19.1c-0.8,8.3-15.7,13.9-30.9,19.1s-30.9,10.3-30.9,20.5"/>
<path class="st6" d="M664.7,341.8c12.5,0,25.8,10.9,25,19.1c-0.8,8.3-15.7,13.9-30.9,19.1s-30.9,10.3-30.9,20.5"/>
<path class="st5" d="M636.6,409.4c28.2,0,54.9,26,56.4,48.9c1.6,22.8-21.9,42.5-44.5,48.9s-44.5-0.5-44.5-1"/>
<path class="st6" d="M636.6,409.4c28.2,0,54.9,26,56.4,48.9c1.6,22.8-21.9,42.5-44.5,48.9s-44.5-0.5-44.5-1"/>
<path class="st5" d="M490.2,418.3c0,4.4-24.4,6.4-48.9,8.8c-24.4,2.4-48.9,5-48.9,10"/>
<path class="st6" d="M490.2,418.3c0,4.4-24.4,6.4-48.9,8.8c-24.4,2.4-48.9,5-48.9,10"/>
<path class="st5" d="M481.4,409.4c-45.9,0-68.8-23.8-91.7-47.6c-22.9-23.8-45.9-47.6-91.7-47.6"/>
<path class="st6" d="M481.4,409.4c-45.9,0-68.8-23.8-91.7-47.6c-22.9-23.8-45.9-47.6-91.7-47.6"/>
<path class="st5" d="M619,409.4c-49.2,0-98.4,39.3-98.4,78.6"/>
<path class="st6" d="M619,409.4c-49.2,0-98.4,39.3-98.4,78.6"/>
<path class="st5" d="M78.6,406.5c70.3,0,103.2,12,140.5,24.1c37.3,12,79.1,24.1,158.2,24.1"/>
<path class="st7" d="M78.6,406.5c70.3,0,103.2,12,140.5,24.1c37.3,12,79.1,24.1,158.2,24.1"/>
<path class="st5" d="M78.6,455.5c88.5,0,132.8,24.8,177,49.6s88.5,49.6,177,49.6"/>
<path class="st7" d="M78.6,455.5c88.5,0,132.8,24.8,177,49.6s88.5,49.6,177,49.6"/>
<path class="st5" d="M441.5,546c0-20.6-16-30.9-32.1-41.2s-32.1-20.6-32.1-41.2"/>
<path class="st7" d="M441.5,546c0-20.6-16-30.9-32.1-41.2s-32.1-20.6-32.1-41.2"/>
<path class="st5" d="M450.3,554.8c13.8,0,20.7,6.9,27.6,13.7s13.8,13.7,27.7,13.7"/>
<path class="st7" d="M450.3,554.8c13.8,0,20.7,6.9,27.6,13.7s13.8,13.7,27.7,13.7"/>
<path class="st5" d="M439.9,461.9c-1.7,0-10.2,11-3.3,22.1s29.3,22.1,58.6,22.1"/>
<path class="st7" d="M439.9,461.9c-1.7,0-10.2,11-3.3,22.1s29.3,22.1,58.6,22.1"/>
<path class="st5" d="M504,514.8c0,14.7,2.6,22,5.2,29.3c2.6,7.3,5.2,14.7,5.2,29.3"/>
<path class="st7" d="M504,514.8c0,14.7,2.6,22,5.2,29.3c2.6,7.3,5.2,14.7,5.2,29.3"/>
<path class="st4" d="M505.6,649L505.6,649c0-4.9,3.9-8.8,8.8-8.8l0,0c2.3,0,4.6,0.9,6.2,2.6c1.7,1.7,2.6,3.9,2.6,6.2l0,0
	c0,4.9-3.9,8.8-8.8,8.8l0,0C509.5,657.8,505.6,653.9,505.6,649z"/>
<path class="st2" d="M505.6,649L505.6,649c0-4.9,3.9-8.8,8.8-8.8l0,0c2.3,0,4.6,0.9,6.2,2.6c1.7,1.7,2.6,3.9,2.6,6.2l0,0
	c0,4.9-3.9,8.8-8.8,8.8l0,0C509.5,657.8,505.6,653.9,505.6,649z"/>
<path class="st5" d="M578.1,627.1c0,10.9-27.4,21.9-54.9,21.9"/>
<path class="st7" d="M578.1,627.1c0,10.9-27.4,21.9-54.9,21.9"/>
<path class="st5" d="M76.4,516.1c107.3,0,160.9,33.2,214.6,66.4S398.3,649,505.6,649"/>
<path class="st7" d="M76.4,516.1c107.3,0,160.9,33.2,214.6,66.4S398.3,649,505.6,649"/>
<path class="st5" d="M78.6,574.5c106.7,0,160.1,18.6,213.5,37.2c53.4,18.6,106.7,37.2,213.5,37.2"/>
<path class="st7" d="M78.6,574.5c106.7,0,160.1,18.6,213.5,37.2c53.4,18.6,106.7,37.2,213.5,37.2"/>
<path class="st5" d="M523.2,582.3c27.4,0,54.9,13.6,54.9,27.2"/>
<path class="st7" d="M523.2,582.3c27.4,0,54.9,13.6,54.9,27.2"/>
<path class="st5" d="M586.9,618.3c39.9,0,59.9,9.6,79.8,19.1c20,9.6,39.9,19.1,79.8,19.1"/>
<path class="st8" d="M586.9,618.3c26.5,0,39.8,11.1,53.1,22.2c13.3,11.1,26.5,22.2,53.1,22.2"/>
<path class="st4" d="M368.5,454.7L368.5,454.7c0-4.9,3.9-8.8,8.8-8.8l0,0c2.3,0,4.6,0.9,6.2,2.6c1.7,1.7,2.6,3.9,2.6,6.2l0,0
	c0,4.9-3.9,8.8-8.8,8.8l0,0C372.5,463.5,368.5,459.5,368.5,454.7z"/>
<path class="st2" d="M368.5,454.7L368.5,454.7c0-4.9,3.9-8.8,8.8-8.8l0,0c2.3,0,4.6,0.9,6.2,2.6c1.7,1.7,2.6,3.9,2.6,6.2l0,0
	c0,4.9-3.9,8.8-8.8,8.8l0,0C372.5,463.5,368.5,459.5,368.5,454.7z"/>
<path class="st9" d="M359.6,437L359.6,437c9.8-9.8,25.6-9.8,35.4,0s9.8,25.6,0,35.4l-8.9-8.9c4.9-4.9,4.9-12.8,0-17.7
	s-12.8-4.9-17.7,0L359.6,437z"/>
<path class="st2" d="M359.6,437L359.6,437c9.8-9.8,25.6-9.8,35.4,0s9.8,25.6,0,35.4l-8.9-8.9c4.9-4.9,4.9-12.8,0-17.7
	s-12.8-4.9-17.7,0L359.6,437z"/>
<path class="st9" d="M385.1,440.1L385.1,440.1c0-2.4,1.9-4.3,4.3-4.3l0,0c1.1,0,2.3,0.5,3.1,1.3s1.3,1.9,1.3,3.1l0,0
	c0,2.4-1.9,4.3-4.3,4.3l0,0C387.1,444.4,385.1,442.5,385.1,440.1z"/>
<path class="st4" d="M495.2,506L495.2,506c0-4.9,3.9-8.8,8.8-8.8l0,0c2.3,0,4.6,0.9,6.2,2.6s2.6,3.9,2.6,6.2l0,0
	c0,4.9-3.9,8.8-8.8,8.8l0,0C499.1,514.8,495.2,510.9,495.2,506z"/>
<path class="st2" d="M495.2,506L495.2,506c0-4.9,3.9-8.8,8.8-8.8l0,0c2.3,0,4.6,0.9,6.2,2.6s2.6,3.9,2.6,6.2l0,0
	c0,4.9-3.9,8.8-8.8,8.8l0,0C499.1,514.8,495.2,510.9,495.2,506z"/>
<path class="st9" d="M486.3,488.3L486.3,488.3c9.8-9.8,25.6-9.8,35.4,0s9.8,25.6,0,35.4l-8.9-8.9c4.9-4.9,4.9-12.8,0-17.7
	s-12.8-4.9-17.7,0L486.3,488.3z"/>
<path class="st2" d="M486.3,488.3L486.3,488.3c9.8-9.8,25.6-9.8,35.4,0s9.8,25.6,0,35.4l-8.9-8.9c4.9-4.9,4.9-12.8,0-17.7
	s-12.8-4.9-17.7,0L486.3,488.3z"/>
<path class="st9" d="M513.1,491.1L513.1,491.1c0-2.4,1.9-4.3,4.3-4.3l0,0c1.1,0,2.3,0.5,3.1,1.3c0.8,0.8,1.3,1.9,1.3,3.1l0,0
	c0,2.4-1.9,4.3-4.3,4.3l0,0C515.1,495.4,513.1,493.5,513.1,491.1z"/>
<path class="st5" d="M40,174.6V59.8h35.6v114.8H40z"/>
<path class="st10" d="M40,174.6V59.8h35.6v114.8H40z"/>
<path class="st11" d="M61.8,160.9H53v-2.3h8.9V160.9z M61.8,151l-5.1,3.8h5.1v2.3H53v-2.4l4.9-3.6H53v-2.3h8.9V151z M61.8,147.2H53
	v-4.5c0-0.5,0.1-0.9,0.2-1.3c0.2-0.4,0.4-0.7,0.6-1c0.3-0.3,0.6-0.5,1-0.6c0.4-0.1,0.7-0.2,1.1-0.2c0.4,0,0.8,0.1,1.1,0.2
	c0.4,0.1,0.7,0.3,0.9,0.6c0.3,0.3,0.5,0.6,0.6,1c0.2,0.4,0.2,0.8,0.2,1.3v2.2h3V147.2z M56.9,143c0-0.3-0.1-0.6-0.2-0.8
	c-0.2-0.2-0.4-0.3-0.7-0.3c-0.3,0-0.5,0.1-0.7,0.3c-0.2,0.2-0.2,0.5-0.2,0.8v1.8h1.9V143z M62,134.4c0,0.7-0.1,1.3-0.3,1.9
	s-0.4,1-0.8,1.3c-0.3,0.3-0.7,0.6-1.2,0.8c-0.5,0.2-1,0.2-1.5,0.2H53v-2.3h5.2c0.5,0,1-0.2,1.3-0.5c0.3-0.3,0.5-0.8,0.5-1.4
	c0-0.6-0.2-1.1-0.5-1.4c-0.3-0.3-0.8-0.5-1.3-0.5H53v-2.3h5.3c0.6,0,1.1,0.1,1.5,0.3c0.5,0.2,0.9,0.4,1.2,0.8
	c0.3,0.3,0.6,0.8,0.8,1.3C61.9,133,62,133.7,62,134.4z M61.8,126.6H55v2.5h-2v-7.3h2v2.5h6.9V126.6z M61.8,117.3H53v-6.5h2v4.2h1.4
	v-4.1h2v4.1h3.5V117.3z M61.8,109.6H53v-2.3h8.9V109.6z M61.8,105.7H53v-5c0-0.4,0.1-0.8,0.2-1.1c0.1-0.3,0.3-0.6,0.5-0.8
	c0.2-0.2,0.4-0.4,0.7-0.5c0.3-0.1,0.5-0.2,0.8-0.2c0.6,0,1,0.1,1.4,0.4c0.3,0.3,0.6,0.7,0.7,1.1c0-0.2,0.1-0.5,0.2-0.7
	c0.1-0.2,0.3-0.4,0.5-0.5c0.2-0.2,0.4-0.3,0.7-0.4c0.2-0.1,0.5-0.1,0.8-0.1c0.3,0,0.6,0.1,0.9,0.2c0.3,0.1,0.5,0.3,0.8,0.5
	s0.4,0.5,0.5,0.8c0.1,0.3,0.2,0.7,0.2,1.1V105.7z M56.4,101.2c0-0.2-0.1-0.4-0.2-0.6c-0.1-0.1-0.3-0.2-0.5-0.2s-0.4,0.1-0.5,0.2
	c-0.1,0.1-0.2,0.3-0.2,0.6v2.2h1.5V101.2z M59.9,101.1c0-0.3-0.1-0.5-0.2-0.7c-0.1-0.2-0.3-0.2-0.6-0.2c-0.2,0-0.4,0.1-0.6,0.2
	c-0.2,0.1-0.2,0.4-0.2,0.7v2.3h1.6V101.1z M61.8,96.6H53v-6.5h2v4.2h1.4v-4.1h2v4.1h1.5v-4.2h2V96.6z M61.8,83.8l-3,1.5v1.2h3v2.3
	H53v-4.5c0-0.5,0.1-0.9,0.2-1.3s0.4-0.7,0.6-1c0.3-0.3,0.6-0.5,0.9-0.6c0.4-0.1,0.7-0.2,1.1-0.2c0.4,0,0.7,0.1,1,0.2
	c0.3,0.1,0.5,0.2,0.8,0.4c0.2,0.2,0.4,0.4,0.5,0.6c0.1,0.2,0.2,0.4,0.3,0.6l3.3-1.8V83.8z M56.9,84.7c0-0.3-0.1-0.6-0.2-0.8
	c-0.2-0.2-0.4-0.3-0.7-0.3c-0.3,0-0.5,0.1-0.7,0.3C55,84.1,55,84.4,55,84.7v1.8h1.9V84.7z M62,76.6c0,0.9-0.1,1.7-0.4,2.3
	c-0.3,0.6-0.6,1.2-1,1.6l-1.7-1.2c0.3-0.3,0.6-0.7,0.8-1.2c0.2-0.5,0.3-1,0.3-1.6c0-0.4-0.1-0.7-0.2-0.9c-0.1-0.2-0.3-0.3-0.5-0.3
	c-0.2,0-0.4,0.1-0.5,0.4s-0.2,0.6-0.3,0.9c-0.1,0.4-0.2,0.8-0.3,1.2c-0.1,0.4-0.3,0.8-0.5,1.2c-0.2,0.4-0.5,0.7-0.8,0.9
	s-0.8,0.4-1.4,0.4c-0.4,0-0.7-0.1-1.1-0.2s-0.6-0.4-0.9-0.7c-0.3-0.3-0.5-0.7-0.6-1.1c-0.2-0.4-0.2-0.9-0.2-1.5
	c0-1.4,0.4-2.7,1.2-3.6l1.6,1.2c-0.3,0.4-0.5,0.8-0.7,1.2c-0.2,0.5-0.2,0.9-0.2,1.3c0,0.3,0.1,0.6,0.2,0.8c0.1,0.1,0.3,0.2,0.5,0.2
	s0.3-0.1,0.4-0.4c0.1-0.2,0.2-0.6,0.3-0.9c0.1-0.4,0.2-0.8,0.3-1.2c0.1-0.4,0.3-0.8,0.5-1.2c0.2-0.4,0.5-0.7,0.8-0.9
	s0.8-0.4,1.3-0.4c0.4,0,0.9,0.1,1.2,0.2c0.4,0.2,0.7,0.4,0.9,0.7c0.3,0.3,0.5,0.7,0.6,1.2C61.9,75.5,62,76.1,62,76.6z"/>
<path class="st5" d="M503.9,200.3H600v35.6h-96.1V200.3z"/>
<path class="st10" d="M503.9,200.3H600v35.6h-96.1V200.3z"/>
<path class="st11" d="M521.2,222.3c-0.7,0-1.3-0.1-1.9-0.3s-1.1-0.5-1.5-0.9c-0.4-0.4-0.8-0.9-1-1.5c-0.2-0.6-0.4-1.2-0.4-1.9
	s0.1-1.3,0.4-1.9c0.2-0.6,0.6-1,1-1.5c0.4-0.4,0.9-0.7,1.5-0.9s1.2-0.3,1.9-0.3c0.5,0,1,0.1,1.4,0.2s0.8,0.3,1.1,0.5
	c0.3,0.2,0.6,0.5,0.8,0.8s0.4,0.6,0.5,0.9l-2,0.9c-0.1-0.2-0.2-0.3-0.3-0.5s-0.3-0.3-0.5-0.4c-0.2-0.1-0.3-0.2-0.5-0.3
	c-0.2-0.1-0.4-0.1-0.6-0.1c-0.4,0-0.7,0.1-1,0.2s-0.6,0.3-0.8,0.5c-0.2,0.2-0.4,0.5-0.5,0.8c-0.1,0.3-0.2,0.7-0.2,1s0.1,0.7,0.2,1
	c0.1,0.3,0.3,0.6,0.5,0.8c0.2,0.2,0.5,0.4,0.8,0.5s0.6,0.2,1,0.2c0.2,0,0.4,0,0.6-0.1c0.2-0.1,0.4-0.2,0.5-0.3
	c0.2-0.1,0.3-0.3,0.5-0.4s0.2-0.3,0.3-0.5l2,0.9c-0.1,0.3-0.3,0.6-0.5,0.8c-0.2,0.3-0.5,0.5-0.8,0.8c-0.3,0.2-0.7,0.4-1.1,0.6
	C522.2,222.2,521.7,222.3,521.2,222.3z M526.1,222.1v-8.9h6.5v2h-4.2v1.4h4.1v2h-4.1v1.5h4.2v2H526.1z M533.9,222.1v-8.9h2.3v6.9
	h3.6v2H533.9z M541,222.1v-8.9h2.3v6.9h3.6v2H541z M551.4,222.1v-8.9h5c0.4,0,0.8,0.1,1.1,0.2c0.3,0.1,0.6,0.3,0.8,0.5
	c0.2,0.2,0.4,0.4,0.5,0.7c0.1,0.3,0.2,0.5,0.2,0.8c0,0.6-0.1,1-0.4,1.4c-0.3,0.3-0.7,0.6-1.1,0.7c0.2,0,0.5,0.1,0.7,0.2
	c0.2,0.1,0.4,0.3,0.5,0.5c0.2,0.2,0.3,0.4,0.4,0.7c0.1,0.2,0.1,0.5,0.1,0.8c0,0.3-0.1,0.6-0.2,0.9c-0.1,0.3-0.3,0.5-0.5,0.8
	s-0.5,0.4-0.8,0.5c-0.3,0.1-0.7,0.2-1.1,0.2H551.4z M555.9,216.6c0.2,0,0.4-0.1,0.6-0.2c0.1-0.1,0.2-0.3,0.2-0.5s-0.1-0.4-0.2-0.5
	c-0.1-0.1-0.3-0.2-0.6-0.2h-2.2v1.5H555.9z M556,220.2c0.3,0,0.5-0.1,0.7-0.2s0.2-0.3,0.2-0.6c0-0.2-0.1-0.4-0.2-0.6
	c-0.1-0.2-0.4-0.2-0.7-0.2h-2.3v1.6H556z M564.8,222.3c-0.7,0-1.3-0.1-1.9-0.3c-0.6-0.2-1.1-0.5-1.5-1s-0.8-0.9-1-1.5
	s-0.4-1.2-0.4-1.9s0.1-1.3,0.4-1.9s0.6-1,1-1.5s0.9-0.7,1.5-0.9c0.6-0.2,1.2-0.3,1.9-0.3c0.7,0,1.3,0.1,1.9,0.3
	c0.6,0.2,1.1,0.5,1.5,0.9c0.4,0.4,0.8,0.9,1,1.5s0.4,1.2,0.4,1.9s-0.1,1.3-0.4,1.9s-0.6,1-1,1.5c-0.4,0.4-0.9,0.7-1.5,1
	C566.1,222.1,565.5,222.3,564.8,222.3z M564.8,220.2c0.4,0,0.7-0.1,1-0.2c0.3-0.1,0.6-0.3,0.8-0.5s0.4-0.5,0.5-0.8s0.2-0.7,0.2-1
	s-0.1-0.7-0.2-1s-0.3-0.6-0.5-0.8s-0.5-0.4-0.8-0.5c-0.3-0.1-0.6-0.2-1-0.2c-0.4,0-0.7,0.1-1,0.2c-0.3,0.1-0.5,0.3-0.8,0.5
	s-0.4,0.5-0.5,0.8c-0.1,0.3-0.2,0.7-0.2,1s0.1,0.7,0.2,1c0.1,0.3,0.3,0.6,0.5,0.8s0.5,0.4,0.8,0.5
	C564.1,220.2,564.4,220.2,564.8,220.2z M570.7,222.1v-8.9h3.7c0.7,0,1.3,0.1,1.9,0.3c0.6,0.2,1.1,0.5,1.5,0.9s0.8,0.9,1,1.4
	c0.2,0.5,0.4,1.2,0.4,1.8c0,0.7-0.1,1.3-0.4,1.9c-0.2,0.5-0.6,1-1,1.4s-0.9,0.7-1.5,0.9c-0.6,0.2-1.2,0.3-1.9,0.3H570.7z
	 M574.4,220.1c0.4,0,0.7-0.1,1-0.2s0.6-0.3,0.8-0.5s0.4-0.5,0.5-0.8c0.1-0.3,0.2-0.6,0.2-1c0-0.3-0.1-0.7-0.2-1s-0.3-0.5-0.5-0.8
	c-0.2-0.2-0.5-0.4-0.8-0.5c-0.3-0.1-0.7-0.2-1.1-0.2H573v4.9H574.4z M582.3,222.1v-3.6l-3.4-5.3h2.6l1.9,3.3l1.9-3.3h2.6l-3.4,5.3
	v3.6H582.3z"/>
<path class="st12" d="M491.9,288.8L491.9,288.8c0-3.7,6.1-6.7,13.6-6.7l0,0c7.5,0,13.6,3,13.6,6.7l0,0c0,3.7-6.1,6.7-13.6,6.7l0,0
	C498,295.6,491.9,292.5,491.9,288.8z"/>
<path class="st5" d="M519,324h145.6v35.6H519V324z"/>
<path class="st10" d="M519,324h145.6v35.6H519V324z"/>
<path class="st11" d="M545.3,346c-0.7,0-1.3-0.1-1.9-0.3c-0.6-0.2-1.1-0.5-1.5-1c-0.4-0.4-0.8-0.9-1-1.5c-0.2-0.6-0.4-1.2-0.4-1.9
	c0-0.7,0.1-1.3,0.4-1.9c0.2-0.6,0.6-1,1-1.5c0.4-0.4,0.9-0.7,1.5-0.9c0.6-0.2,1.2-0.3,1.9-0.3c0.7,0,1.3,0.1,1.9,0.3
	c0.6,0.2,1.1,0.5,1.5,0.9c0.4,0.4,0.8,0.9,1,1.5c0.2,0.6,0.4,1.2,0.4,1.9c0,0.7-0.1,1.3-0.4,1.9c-0.2,0.6-0.6,1-1,1.5
	c-0.4,0.4-0.9,0.7-1.5,1C546.6,345.9,546,346,545.3,346z M545.3,344c0.4,0,0.7-0.1,1-0.2c0.3-0.1,0.6-0.3,0.8-0.5
	c0.2-0.2,0.4-0.5,0.5-0.8c0.1-0.3,0.2-0.7,0.2-1c0-0.4-0.1-0.7-0.2-1c-0.1-0.3-0.3-0.6-0.5-0.8c-0.2-0.2-0.5-0.4-0.8-0.5
	c-0.3-0.1-0.6-0.2-1-0.2c-0.4,0-0.7,0.1-1,0.2c-0.3,0.1-0.5,0.3-0.8,0.5c-0.2,0.2-0.4,0.5-0.5,0.8c-0.1,0.3-0.2,0.7-0.2,1
	c0,0.4,0.1,0.7,0.2,1c0.1,0.3,0.3,0.6,0.5,0.8c0.2,0.2,0.5,0.4,0.8,0.5C544.6,343.9,544.9,344,545.3,344z M555.4,346
	c-0.7,0-1.3-0.1-1.9-0.3s-1-0.4-1.3-0.8c-0.3-0.3-0.6-0.7-0.8-1.2c-0.2-0.5-0.2-1-0.2-1.5v-5.3h2.3v5.2c0,0.5,0.2,1,0.5,1.3
	c0.3,0.3,0.8,0.5,1.4,0.5c0.6,0,1.1-0.2,1.4-0.5c0.3-0.3,0.5-0.8,0.5-1.3v-5.2h2.3v5.3c0,0.6-0.1,1.1-0.3,1.5
	c-0.2,0.5-0.4,0.9-0.8,1.2c-0.3,0.3-0.8,0.6-1.3,0.8C556.7,345.9,556.1,346,555.4,346z M563.2,345.8v-6.9h-2.5v-2h7.3v2h-2.5v6.9
	H563.2z M569,345.8v-8.9h4.5c0.5,0,0.9,0.1,1.3,0.2s0.7,0.4,1,0.6c0.3,0.3,0.5,0.6,0.6,1c0.1,0.4,0.2,0.7,0.2,1.1
	c0,0.4-0.1,0.8-0.2,1.1c-0.1,0.4-0.3,0.7-0.6,0.9c-0.3,0.3-0.6,0.5-1,0.6s-0.8,0.2-1.3,0.2h-2.2v3H569z M573.2,340.9
	c0.3,0,0.6-0.1,0.8-0.2c0.2-0.2,0.3-0.4,0.3-0.7c0-0.3-0.1-0.5-0.3-0.7c-0.2-0.2-0.5-0.2-0.8-0.2h-1.8v1.9H573.2z M581.8,346
	c-0.7,0-1.3-0.1-1.9-0.3s-1-0.4-1.3-0.8c-0.3-0.3-0.6-0.7-0.8-1.2c-0.2-0.5-0.2-1-0.2-1.5v-5.3h2.3v5.2c0,0.5,0.2,1,0.5,1.3
	c0.3,0.3,0.8,0.5,1.4,0.5c0.6,0,1.1-0.2,1.4-0.5c0.3-0.3,0.5-0.8,0.5-1.3v-5.2h2.3v5.3c0,0.6-0.1,1.1-0.3,1.5
	c-0.2,0.5-0.4,0.9-0.8,1.2c-0.3,0.3-0.8,0.6-1.3,0.8C583.1,345.9,582.5,346,581.8,346z M589.6,345.8v-6.9h-2.5v-2h7.3v2h-2.5v6.9
	H589.6z M598.9,345.8v-8.9h6.5v2h-4.2v1.4h4.1v2h-4.1v3.5H598.9z M606.6,345.8v-8.9h2.3v8.9H606.6z M610.5,345.8v-8.9h5
	c0.4,0,0.8,0.1,1.1,0.2c0.3,0.1,0.6,0.3,0.8,0.5c0.2,0.2,0.4,0.4,0.5,0.7c0.1,0.3,0.2,0.5,0.2,0.8c0,0.6-0.1,1-0.4,1.4
	c-0.3,0.3-0.7,0.6-1.1,0.7c0.2,0,0.5,0.1,0.7,0.2c0.2,0.1,0.4,0.3,0.5,0.5c0.2,0.2,0.3,0.4,0.4,0.7c0.1,0.2,0.1,0.5,0.1,0.8
	c0,0.3-0.1,0.6-0.2,0.9c-0.1,0.3-0.3,0.5-0.5,0.8s-0.5,0.4-0.8,0.5c-0.3,0.1-0.7,0.2-1.1,0.2H610.5z M615,340.4
	c0.2,0,0.4-0.1,0.6-0.2c0.1-0.1,0.2-0.3,0.2-0.5s-0.1-0.4-0.2-0.5c-0.1-0.1-0.3-0.2-0.6-0.2h-2.2v1.5H615z M615.1,343.9
	c0.3,0,0.5-0.1,0.7-0.2c0.2-0.1,0.2-0.3,0.2-0.6c0-0.2-0.1-0.4-0.2-0.6c-0.1-0.2-0.4-0.2-0.7-0.2h-2.3v1.6H615.1z M619.6,345.8v-8.9
	h6.5v2h-4.2v1.4h4.1v2h-4.1v1.5h4.2v2H619.6z M632.4,345.8l-1.5-3h-1.2v3h-2.3v-8.9h4.5c0.5,0,0.9,0.1,1.3,0.2s0.7,0.4,1,0.6
	c0.3,0.3,0.5,0.6,0.6,0.9c0.1,0.4,0.2,0.7,0.2,1.1c0,0.4-0.1,0.7-0.2,1c-0.1,0.3-0.2,0.5-0.4,0.8c-0.2,0.2-0.4,0.4-0.6,0.5
	c-0.2,0.1-0.4,0.2-0.6,0.3l1.8,3.3H632.4z M631.5,340.9c0.3,0,0.6-0.1,0.8-0.2c0.2-0.2,0.3-0.4,0.3-0.7c0-0.3-0.1-0.5-0.3-0.7
	c-0.2-0.2-0.5-0.2-0.8-0.2h-1.8v1.9H631.5z M639.5,346c-0.9,0-1.7-0.1-2.3-0.4c-0.6-0.3-1.2-0.6-1.6-1l1.2-1.7
	c0.3,0.3,0.7,0.6,1.2,0.8c0.5,0.2,1,0.3,1.6,0.3c0.4,0,0.7-0.1,0.9-0.2c0.2-0.1,0.3-0.3,0.3-0.5c0-0.2-0.1-0.4-0.4-0.5
	s-0.6-0.2-0.9-0.3c-0.4-0.1-0.8-0.2-1.2-0.3c-0.4-0.1-0.8-0.3-1.2-0.5c-0.4-0.2-0.7-0.5-0.9-0.8s-0.4-0.8-0.4-1.4
	c0-0.4,0.1-0.7,0.2-1.1s0.4-0.6,0.7-0.9c0.3-0.3,0.7-0.5,1.1-0.6c0.4-0.2,0.9-0.2,1.5-0.2c1.4,0,2.7,0.4,3.6,1.2l-1.2,1.6
	c-0.4-0.3-0.8-0.5-1.2-0.7c-0.5-0.2-0.9-0.2-1.3-0.2c-0.3,0-0.6,0.1-0.8,0.2c-0.1,0.1-0.2,0.3-0.2,0.5s0.1,0.3,0.4,0.4
	c0.2,0.1,0.6,0.2,0.9,0.3c0.4,0.1,0.8,0.2,1.2,0.3c0.4,0.1,0.8,0.3,1.2,0.5c0.4,0.2,0.7,0.5,0.9,0.8s0.4,0.8,0.4,1.3
	c0,0.4-0.1,0.9-0.2,1.2c-0.2,0.4-0.4,0.7-0.7,0.9c-0.3,0.3-0.7,0.5-1.2,0.6C640.7,345.9,640.1,346,639.5,346z"/>
<path class="st5" d="M551.9,235.9c0,9.4-11.6,14-23.2,18.7c-11.6,4.7-23.2,9.4-23.2,18.7"/>
<path class="st13" d="M551.9,235.9c0,9.4-11.6,14-23.2,18.7c-5.8,2.3-11.6,4.7-16,7.6c-2.2,1.5-4,3.1-5.3,4.9
	c-0.1,0.1-0.2,0.2-0.2,0.3l-0.1,0.1"/>
<path class="st14" d="M505.6,267.1l0.3,4.8l2.9-3.9L505.6,267.1z"/>
<path class="st5" d="M40.8,652.7V379.5h35.6v273.2H40.8z"/>
<path class="st10" d="M40.8,652.7V379.5h35.6v273.2H40.8z"/>
<path class="st11" d="M62.6,633.9h-8.9v-2.3h8.9V633.9z M62.6,624l-5.1,3.8h5.1v2.3h-8.9v-2.4l4.9-3.6h-4.9v-2.3h8.9V624z
	 M62.6,620.2h-8.9v-4.5c0-0.5,0.1-0.9,0.2-1.3s0.4-0.7,0.6-1s0.6-0.5,1-0.6c0.4-0.1,0.7-0.2,1.1-0.2c0.4,0,0.8,0.1,1.1,0.2
	s0.7,0.3,0.9,0.6s0.5,0.6,0.6,1s0.2,0.8,0.2,1.3v2.2h3V620.2z M57.7,616c0-0.3-0.1-0.6-0.2-0.8c-0.2-0.2-0.4-0.3-0.7-0.3
	s-0.5,0.1-0.7,0.3c-0.2,0.2-0.2,0.5-0.2,0.8v1.8h1.9V616z M62.8,607.4c0,0.7-0.1,1.3-0.3,1.9s-0.4,1-0.8,1.3s-0.7,0.6-1.2,0.8
	c-0.5,0.2-1,0.2-1.5,0.2h-5.3v-2.3H59c0.5,0,1-0.2,1.3-0.5c0.3-0.3,0.5-0.8,0.5-1.4c0-0.6-0.2-1.1-0.5-1.4c-0.3-0.3-0.8-0.5-1.3-0.5
	h-5.2v-2.3H59c0.6,0,1.1,0.1,1.5,0.3c0.5,0.2,0.9,0.4,1.2,0.8s0.6,0.8,0.8,1.3C62.7,606.1,62.8,606.7,62.8,607.4z M62.6,599.6h-6.9
	v2.5h-2v-7.3h2v2.5h6.9V599.6z M62.6,590.4h-8.9v-6.5h2v4.2h1.4v-4.1h2v4.1h3.5V590.4z M62.6,582.6h-8.9v-2.3h8.9V582.6z
	 M62.6,578.7h-8.9v-5c0-0.4,0.1-0.8,0.2-1.1s0.3-0.6,0.5-0.8c0.2-0.2,0.4-0.4,0.7-0.5c0.3-0.1,0.5-0.2,0.8-0.2c0.6,0,1,0.1,1.4,0.4
	c0.3,0.3,0.6,0.7,0.7,1.1c0-0.2,0.1-0.5,0.2-0.7c0.1-0.2,0.3-0.4,0.5-0.5c0.2-0.2,0.4-0.3,0.7-0.4c0.2-0.1,0.5-0.1,0.8-0.1
	c0.3,0,0.6,0.1,0.9,0.2c0.3,0.1,0.5,0.3,0.8,0.5s0.4,0.5,0.5,0.8c0.1,0.3,0.2,0.7,0.2,1.1V578.7z M57.2,574.2c0-0.2-0.1-0.4-0.2-0.6
	s-0.3-0.2-0.5-0.2s-0.4,0.1-0.5,0.2s-0.2,0.3-0.2,0.6v2.2h1.5V574.2z M60.7,574.1c0-0.3-0.1-0.5-0.2-0.7s-0.3-0.2-0.6-0.2
	c-0.2,0-0.4,0.1-0.6,0.2c-0.2,0.1-0.2,0.4-0.2,0.7v2.3h1.6V574.1z M62.6,569.6h-8.9v-6.5h2v4.2h1.4v-4.1h2v4.1h1.5v-4.2h2V569.6z
	 M62.6,556.8l-3,1.5v1.2h3v2.3h-8.9v-4.5c0-0.5,0.1-0.9,0.2-1.3s0.4-0.7,0.6-1c0.3-0.3,0.6-0.5,0.9-0.6c0.4-0.1,0.7-0.2,1.1-0.2
	c0.4,0,0.7,0.1,1,0.2c0.3,0.1,0.5,0.2,0.8,0.4c0.2,0.2,0.4,0.4,0.5,0.6c0.1,0.2,0.2,0.4,0.3,0.6l3.3-1.8V556.8z M57.7,557.7
	c0-0.3-0.1-0.6-0.2-0.8s-0.4-0.3-0.7-0.3s-0.5,0.1-0.7,0.3s-0.2,0.5-0.2,0.8v1.8h1.9V557.7z M62.8,549.7c0,0.9-0.1,1.7-0.4,2.3
	c-0.3,0.6-0.6,1.2-1,1.6l-1.7-1.2c0.3-0.3,0.6-0.7,0.8-1.2c0.2-0.5,0.3-1,0.3-1.6c0-0.4-0.1-0.7-0.2-0.9c-0.1-0.2-0.3-0.3-0.5-0.3
	s-0.4,0.1-0.5,0.4s-0.2,0.6-0.3,0.9c-0.1,0.4-0.2,0.8-0.3,1.2c-0.1,0.4-0.3,0.8-0.5,1.2s-0.5,0.7-0.8,0.9s-0.8,0.4-1.4,0.4
	c-0.4,0-0.7-0.1-1.1-0.2s-0.6-0.4-0.9-0.7c-0.3-0.3-0.5-0.7-0.6-1.1c-0.2-0.4-0.2-0.9-0.2-1.5c0-1.4,0.4-2.7,1.2-3.6l1.6,1.2
	c-0.3,0.4-0.5,0.8-0.7,1.2c-0.2,0.5-0.2,0.9-0.2,1.3c0,0.3,0.1,0.6,0.2,0.8c0.1,0.1,0.3,0.2,0.5,0.2s0.3-0.1,0.4-0.4
	c0.1-0.2,0.2-0.6,0.3-0.9s0.2-0.8,0.3-1.2c0.1-0.4,0.3-0.8,0.5-1.2c0.2-0.4,0.5-0.7,0.8-0.9s0.8-0.4,1.3-0.4c0.4,0,0.9,0.1,1.2,0.2
	c0.4,0.2,0.7,0.4,0.9,0.7c0.3,0.3,0.5,0.7,0.6,1.2C62.7,548.6,62.8,549.1,62.8,549.7z M62.8,537.2c0,0.7-0.1,1.3-0.3,1.9
	c-0.2,0.6-0.5,1.1-1,1.5s-0.9,0.8-1.5,1s-1.2,0.4-1.9,0.4s-1.3-0.1-1.9-0.4s-1-0.6-1.5-1s-0.7-0.9-0.9-1.5c-0.2-0.6-0.3-1.2-0.3-1.9
	c0-0.7,0.1-1.3,0.3-1.9c0.2-0.6,0.5-1.1,0.9-1.5c0.4-0.4,0.9-0.8,1.5-1s1.2-0.4,1.9-0.4s1.3,0.1,1.9,0.4s1,0.6,1.5,1
	c0.4,0.4,0.7,0.9,1,1.5C62.7,535.9,62.8,536.5,62.8,537.2z M60.8,537.2c0-0.4-0.1-0.7-0.2-1c-0.1-0.3-0.3-0.6-0.5-0.8
	s-0.5-0.4-0.8-0.5s-0.7-0.2-1-0.2s-0.7,0.1-1,0.2s-0.6,0.3-0.8,0.5s-0.4,0.5-0.5,0.8c-0.1,0.3-0.2,0.6-0.2,1c0,0.4,0.1,0.7,0.2,1
	c0.1,0.3,0.3,0.5,0.5,0.8s0.5,0.4,0.8,0.5c0.3,0.1,0.7,0.2,1,0.2s0.7-0.1,1-0.2c0.3-0.1,0.6-0.3,0.8-0.5s0.4-0.5,0.5-0.8
	C60.7,537.9,60.8,537.6,60.8,537.2z M62.6,531.3h-8.9v-6.5h2v4.2h1.4v-4.1h2v4.1h3.5V531.3z M62.6,514.1l-1.3,0.5v3.5l1.3,0.4v2.6
	l-8.9-3.3v-2.9l8.9-3.4V514.1z M56,516.3l3.3,1.1v-2.3L56,516.3z M62.6,504.8l-5.1,3.8h5.1v2.3h-8.9v-2.4l4.9-3.6h-4.9v-2.3h8.9
	V504.8z M62.8,496.7c0,0.7-0.1,1.3-0.3,1.9c-0.2,0.6-0.5,1.1-1,1.5c-0.4,0.4-0.9,0.8-1.5,1c-0.6,0.2-1.2,0.4-1.9,0.4
	s-1.3-0.1-1.9-0.4c-0.6-0.2-1-0.6-1.5-1c-0.4-0.4-0.7-0.9-0.9-1.5c-0.2-0.6-0.3-1.2-0.3-1.9c0-0.7,0.1-1.3,0.3-1.9
	c0.2-0.6,0.5-1.1,0.9-1.5c0.4-0.4,0.9-0.8,1.5-1c0.6-0.2,1.2-0.4,1.9-0.4s1.3,0.1,1.9,0.4c0.6,0.2,1,0.6,1.5,1
	c0.4,0.4,0.7,0.9,1,1.5C62.7,495.3,62.8,496,62.8,496.7z M60.8,496.7c0-0.4-0.1-0.7-0.2-1c-0.1-0.3-0.3-0.6-0.5-0.8
	c-0.2-0.2-0.5-0.4-0.8-0.5c-0.3-0.1-0.7-0.2-1-0.2s-0.7,0.1-1,0.2c-0.3,0.1-0.6,0.3-0.8,0.5c-0.2,0.2-0.4,0.5-0.5,0.8
	c-0.1,0.3-0.2,0.6-0.2,1c0,0.4,0.1,0.7,0.2,1c0.1,0.3,0.3,0.5,0.5,0.8c0.2,0.2,0.5,0.4,0.8,0.5c0.3,0.1,0.7,0.2,1,0.2s0.7-0.1,1-0.2
	c0.3-0.1,0.6-0.3,0.8-0.5c0.2-0.2,0.4-0.5,0.5-0.8C60.7,497.4,60.8,497,60.8,496.7z M62.6,489.1h-6.9v2.5h-2v-7.3h2v2.5h6.9V489.1z
	 M62.6,477.2h-3.6v3.7h3.6v2.3h-8.9v-2.3h3.3v-3.7h-3.3v-2.3h8.9V477.2z M62.6,473.3h-8.9v-6.5h2v4.2h1.4v-4.1h2v4.1h1.5v-4.2h2
	V473.3z M62.6,460.5l-3,1.5v1.2h3v2.3h-8.9V461c0-0.5,0.1-0.9,0.2-1.3c0.2-0.4,0.4-0.7,0.6-1c0.3-0.3,0.6-0.5,0.9-0.6
	c0.4-0.1,0.7-0.2,1.1-0.2c0.4,0,0.7,0.1,1,0.2c0.3,0.1,0.5,0.2,0.8,0.4c0.2,0.2,0.4,0.4,0.5,0.6c0.1,0.2,0.2,0.4,0.3,0.6l3.3-1.8
	V460.5z M57.7,461.4c0-0.3-0.1-0.6-0.2-0.8s-0.4-0.3-0.7-0.3s-0.5,0.1-0.7,0.3s-0.2,0.5-0.2,0.8v1.8h1.9V461.4z M62.6,447.2
	l-5.1,3.8h5.1v2.3h-8.9v-2.4l4.9-3.6h-4.9V445h8.9V447.2z M62.6,443.4h-8.9v-6.5h2v4.2h1.4V437h2v4.1h1.5v-4.2h2V443.4z M62.8,431.3
	c0,0.7-0.1,1.3-0.3,1.9c-0.2,0.5-0.4,1-0.8,1.3c-0.3,0.3-0.7,0.6-1.2,0.8c-0.5,0.2-1,0.2-1.5,0.2h-5.3v-2.3H59c0.5,0,1-0.2,1.3-0.5
	c0.3-0.3,0.5-0.8,0.5-1.4c0-0.6-0.2-1.1-0.5-1.4c-0.3-0.3-0.8-0.5-1.3-0.5h-5.2v-2.3H59c0.6,0,1.1,0.1,1.5,0.3
	c0.5,0.2,0.9,0.4,1.2,0.8c0.3,0.3,0.6,0.8,0.8,1.3C62.7,430,62.8,430.6,62.8,431.3z M62.6,420.6l-3,1.5v1.2h3v2.3h-8.9v-4.5
	c0-0.5,0.1-0.9,0.2-1.3c0.2-0.4,0.4-0.7,0.6-1c0.3-0.3,0.6-0.5,0.9-0.6c0.4-0.1,0.7-0.2,1.1-0.2c0.4,0,0.7,0.1,1,0.2
	c0.3,0.1,0.5,0.2,0.8,0.4c0.2,0.2,0.4,0.4,0.5,0.6c0.1,0.2,0.2,0.4,0.3,0.6l3.3-1.8V420.6z M57.7,421.4c0-0.3-0.1-0.6-0.2-0.8
	s-0.4-0.3-0.7-0.3s-0.5,0.1-0.7,0.3s-0.2,0.5-0.2,0.8v1.8h1.9V421.4z M62.8,412.4c0,0.7-0.1,1.3-0.3,1.9c-0.2,0.6-0.5,1.1-1,1.5
	c-0.4,0.4-0.9,0.8-1.5,1c-0.6,0.2-1.2,0.4-1.9,0.4s-1.3-0.1-1.9-0.4c-0.6-0.2-1-0.6-1.5-1c-0.4-0.4-0.7-0.9-0.9-1.5
	c-0.2-0.6-0.3-1.2-0.3-1.9c0-0.7,0.1-1.3,0.3-1.9c0.2-0.6,0.5-1.1,0.9-1.5c0.4-0.4,0.9-0.8,1.5-1c0.6-0.2,1.2-0.4,1.9-0.4
	s1.3,0.1,1.9,0.4c0.6,0.2,1,0.6,1.5,1c0.4,0.4,0.7,0.9,1,1.5C62.7,411.1,62.8,411.7,62.8,412.4z M60.8,412.4c0-0.4-0.1-0.7-0.2-1
	c-0.1-0.3-0.3-0.6-0.5-0.8c-0.2-0.2-0.5-0.4-0.8-0.5c-0.3-0.1-0.7-0.2-1-0.2s-0.7,0.1-1,0.2c-0.3,0.1-0.6,0.3-0.8,0.5
	c-0.2,0.2-0.4,0.5-0.5,0.8c-0.1,0.3-0.2,0.6-0.2,1c0,0.4,0.1,0.7,0.2,1c0.1,0.3,0.3,0.5,0.5,0.8c0.2,0.2,0.5,0.4,0.8,0.5
	c0.3,0.1,0.7,0.2,1,0.2s0.7-0.1,1-0.2c0.3-0.1,0.6-0.3,0.8-0.5c0.2-0.2,0.4-0.5,0.5-0.8C60.7,413.1,60.8,412.8,60.8,412.4z
	 M62.6,400.5l-5.1,3.8h5.1v2.3h-8.9v-2.4l4.9-3.6h-4.9v-2.3h8.9V400.5z"/>
<g>
	<path class="st11" d="M690,110.2h-46.5c-5.2,0-9.4-4.2-9.4-9.4V30.2c0-5.2,4.2-9.4,9.4-9.4H690c5.2,0,9.4,4.2,9.4,9.4v70.6
		C699.4,106,695.2,110.2,690,110.2z"/>
	<text transform="matrix(1 0 0 1 643.6028 80.7953)"><tspan x="0" y="0" class="st15 st16 st17">l</tspan><tspan x="23.5" y="5" class="st15 st16 st18 st19">j</tspan></text>
</g>
</svg>
